<?xml version="1.0" encoding="utf-8"?>
<!-- Generator: Adobe Illustrator 14.0.0, SVG Export Plug-In . SVG Version: 6.00 Build 43363)  -->
<!DOCTYPE svg PUBLIC "-//W3C//DTD SVG 1.1//EN" "http://www.w3.org/Graphics/SVG/1.1/DTD/svg11.dtd">
<svg version="1.1" id="Layer_1" xmlns:serif="http://www.serif.com/"
	 xmlns="http://www.w3.org/2000/svg" xmlns:xlink="http://www.w3.org/1999/xlink" x="0px" y="0px" width="150px" height="150px"
	 viewBox="-25 -25 150 150" enable-background="new -25 -25 150 150" xml:space="preserve">
<g transform="matrix(1,0,0,1,-1.5613,0)">
	
		<circle fill="none" stroke="#FFFFFF" stroke-linecap="round" stroke-linejoin="round" stroke-miterlimit="1.5" cx="51.389" cy="51.296" r="41.332"/>
</g>
<g transform="matrix(0.332646,0,0,0.332646,44.9289,49.0519)">
	<path fill="#FFFFFF" d="M-0.001,53.142l19.887-19.881l3.546,19.881H-0.001z M9.111-27.044L12.65-7.31H5.564L9.111-27.044z
		 M18.603,28.908L-5.112,52.629l4.23-23.721H18.603z M17.587,20.503H2.418L15.264,7.635L17.587,20.503z M14.449,2.85L1.475,15.826
		L4.068,1.123h10.045L14.449,2.85z M17.91-35.295c-2.472,1.578-5.39,2.5-8.559,2.5c-3.353,0-6.412-1.051-8.951-2.804L-21.84,88.744
		h10.306l4.838-27.191h31.637l4.838,27.191h10.275L17.91-35.295z"/>
</g>
<g transform="matrix(0.332646,0,0,0.332646,48.0393,29.0361)">
	<path fill="#FFFFFF" d="M-0.001,23.178c6.435,0,11.62-5.214,11.62-11.581C11.619,5.185,6.434,0-0.001,0
		c-6.39,0-11.586,5.185-11.586,11.596C-11.587,17.964-6.39,23.178-0.001,23.178"/>
</g>
<g transform="matrix(0.332646,0,0,0.332646,43.2433,33.2141)">
	<path fill="#FFFFFF" id="right" d="M0-1.929L-8.419-0.47l-13.713-13.127l-17.33,14.928l-19.301-12.097l19.584,22.435l19.584-10.338
		l11.175,7.146L0-1.929z"/>
</g>
<g transform="matrix(0.332646,0,0,0.332646,66.6877,32.13)">
	<path fill="#FFFFFF" id="left" d="M-0.001,4.59l-17.391-14.928L-31.055,2.789l-8.461-1.459l8.461,10.406l11.156-7.146l19.593,10.338
		L19.211-7.507L-0.001,4.59z"/>
</g>
</svg>
